<svg width="48" height="48" viewBox="0 0 48 48" fill="none" xmlns="http://www.w3.org/2000/svg">
<rect x="1" y="1" width="46" height="46" rx="13" fill="#ECF53A"/>
<rect x="1" y="1" width="46" height="46" rx="13" stroke="#B2BA20" stroke-width="2"/>
<path d="M32.2475 21.7579L33.6869 20.3184C34.7223 19.2826 34.7223 17.6041 33.6869 16.5682C33.1663 16.0482 32.4845 15.7892 31.8018 15.7918C31.2925 15.7936 30.8068 16.008 30.4467 16.3682L25.057 21.7579L30.4467 27.1475C31.334 28.0534 32.8213 27.8163 33.6869 26.9475C34.7223 25.9116 34.7223 24.2331 33.6869 23.1972L32.2475 21.7579Z" fill="#0F172A"/>
<path d="M14.3132 26.9473C15.1788 27.8161 16.6655 28.0534 17.5534 27.1474L22.9431 21.7577L17.5534 16.3681C16.6661 15.4622 15.1788 15.6993 14.3132 16.5681C13.2777 17.604 13.2777 19.2825 14.3132 20.3184L15.7526 21.7577L14.3132 23.1971C13.2777 24.233 13.2777 25.9115 14.3132 26.9473Z" fill="#0F172A"/>
<path d="M18.6105 15.3114L24.0001 20.701L29.3898 15.3114C29.75 14.9512 29.9643 14.4655 29.9662 13.9562C29.9662 13.2163 29.6738 12.5556 29.1897 12.0711C28.1539 11.0357 26.4754 11.0357 25.4395 12.0711L24.0001 13.5105L22.5607 12.0711C21.5248 11.0357 19.8464 11.0357 18.8105 12.0711C18.2905 12.5918 18.0315 13.2735 18.034 13.9562C18.0359 14.4656 18.2503 14.9512 18.6105 15.3114Z" fill="#0F172A"/>
<path d="M29.3897 28.2045L24.0001 22.8148L18.6104 28.2045C17.7046 29.0919 17.9416 30.5791 18.8104 31.4447C19.8463 32.4801 21.5248 32.4801 22.5607 31.4447L23.2527 30.7527V31.4739C23.2527 33.5345 21.5763 35.2108 19.5157 35.2108H14.284V36.7056H19.5157C22.4006 36.7056 24.7474 34.3587 24.7474 31.4739V30.7527L25.4395 31.4447C26.4754 32.4801 28.1538 32.4801 29.1897 31.4447C29.6736 30.9605 29.9662 30.2998 29.9662 29.5596C29.9642 29.0503 29.7499 28.5646 29.3897 28.2045Z" fill="#0F172A"/>
</svg>
