<svg width="36" height="36" viewBox="0 0 36 36" fill="none" xmlns="http://www.w3.org/2000/svg">
<rect x="0.75" y="0.75" width="34.5" height="34.5" rx="9.75" fill="#F8F8F8"/>
<rect x="0.75" y="0.75" width="34.5" height="34.5" rx="9.75" stroke="#D9D9D9" stroke-width="1.5"/>
<g clip-path="url(#clip0_312_3765)">
<path d="M26.3977 25.1998H9.59771C8.93494 25.1998 8.39771 24.6625 8.39771 23.9998C8.39771 23.3371 8.93494 22.7998 9.59771 22.7998H26.3977C27.0605 22.7998 27.5977 23.3371 27.5977 23.9998C27.5977 24.6625 27.0605 25.1998 26.3977 25.1998Z" fill="black"/>
<path d="M26.3977 19.1996H9.59771C8.93494 19.1996 8.39771 18.6624 8.39771 17.9997C8.39771 17.3369 8.93494 16.7996 9.59771 16.7996H26.3977C27.0605 16.7996 27.5977 17.3369 27.5977 17.9997C27.5977 18.6624 27.0605 19.1996 26.3977 19.1996Z" fill="black"/>
<path d="M26.3977 13.2H9.59771C8.93494 13.2 8.39771 12.6628 8.39771 12C8.39771 11.3372 8.93494 10.8 9.59771 10.8H26.3977C27.0605 10.8 27.5977 11.3372 27.5977 12C27.5977 12.6628 27.0605 13.2 26.3977 13.2Z" fill="black"/>
</g>
<defs>
<clipPath id="clip0_312_3765">
<rect width="19.2" height="19.2" fill="white" transform="translate(8.3999 8.4)"/>
</clipPath>
</defs>
</svg>
