<svg width="24" height="25" viewBox="0 0 24 25" fill="none" xmlns="http://www.w3.org/2000/svg">
<path d="M21.06 6.04198C20.3266 5.07835 19.2905 4.38922 18.1183 4.0853C16.946 3.78138 15.7057 3.88031 14.5964 4.3662C13.6036 4.79464 12.7181 5.51698 12 6.47557C11.2819 5.51464 10.3964 4.79229 9.40359 4.3662C8.29435 3.88031 7.05397 3.78138 5.88173 4.0853C4.7095 4.38922 3.67344 5.07835 2.94 6.04198C2.16656 7.05542 1.75781 8.32198 1.75781 9.70432C1.75781 11.6937 2.94422 13.8762 5.28375 16.1937C7.19016 18.0814 9.44297 19.6273 10.6158 20.3806C11.029 20.6451 11.5094 20.7856 12 20.7856C12.4906 20.7856 12.971 20.6451 13.3842 20.3806C14.5561 19.6273 16.8098 18.0814 18.7162 16.1937C21.0558 13.8771 22.2422 11.6937 22.2422 9.70432C22.2422 8.32198 21.8334 7.05542 21.06 6.04198Z" fill="#F9595F"/>
</svg>
